<svg xmlns="http://www.w3.org/2000/svg" viewBox="0 0 875.983 875.983"><defs><style>.a{fill:#607d8b;}.b{fill:none;stroke:#ff4081;stroke-miterlimit:10;stroke-width:65.291px;}</style></defs><title>apiless-icon</title><path class="a" d="M222.577,529.055,215.771,553.8c-6.8,24.746-16.181,34.565-33.243,34.578-17.916.014-33.284-14.476-33.3-31.539-.006-7.251.419-9.384,5.527-22.612L228.816,329.42c8.512-23.041,25.564-36.279,48.172-36.3s39.68,13.192,48.23,36.22L399.6,534.032c5.129,13.219,5.558,15.778,5.563,22.6.014,17.062-14.9,31.577-33.246,31.592-17.062.014-26.027-9.364-33.3-34.525l-6.844-24.735Zm54.893-166.83L243.005,470.6l69.1-.055Z"/><path class="a" d="M483.341,543.775c.012,15.783-.838,19.623-4.244,27.3-5.112,9.389-16.623,16.223-28.14,16.232-11.943.01-23.466-6.806-28.592-16.186-3.846-7.675-4.275-11.514-4.288-27.3L417.919,345.9c-.016-20.048,1.259-25.168,6.8-32.85,7.67-10.244,17.478-14.518,32.407-14.529l8.1-.007,58.865-.047c32.419-.026,55.032,7.208,72.534,23.4,18.782,17.474,29.895,44.765,29.917,72.491.019,23.887-8.066,48.208-21.7,64.855-16.62,20.487-40.5,30.317-72.065,30.343L483.3,489.6ZM516.1,432.844c26.447-.021,43.5-15.391,43.479-38.425-.02-23.461-15.815-39.231-40.129-39.212l-36.257.029.062,77.634Z"/><path class="a" d="M641.379,337.621c-.012-15.783.838-19.623,4.244-27.3,5.111-9.389,16.622-16.223,28.566-16.233,11.517-.009,23.467,6.806,28.166,16.187,3.846,7.675,4.275,11.087,4.288,27.3l.164,206.028c.013,15.782-.837,19.622-4.243,27.3-5.112,9.388-16.623,16.222-28.14,16.232-11.944.009-23.467-6.807-28.593-16.187-3.845-7.675-4.274-11.087-4.287-27.3Z"/><circle class="b" cx="437.992" cy="437.992" r="405.346"/><line class="b" x1="149.691" y1="153.086" x2="726.547" y2="722.655"/></svg>